<svg width="23" height="23" viewBox="0 0 23 23" fill="none" xmlns="http://www.w3.org/2000/svg">
<path d="M19.5725 0H18.0959C19.1506 0.32892 19.6991 1.18873 19.6991 2.46402V19.7006C19.6991 20.9759 19.2069 21.853 18.0959 22.1646H19.5725C21.2389 22.1646 22.5819 21.0567 22.5819 19.7006V2.46402C22.5819 1.10794 21.2389 0 19.5725 0Z" fill="#C6C6C6"/>
<path d="M15.9587 0.0115409C15.8814 0.00577021 15.8042 0 15.7269 0H2.77965C1.48272 0 0.423096 1.10794 0.423096 2.46402V19.7006C0.423096 21.0567 1.48272 22.1646 2.77965 22.1646H15.7324C15.8097 22.1646 15.887 22.1589 15.9642 22.1531C17.1508 22.0319 18.089 20.9759 18.089 19.7006V2.46402C18.0835 1.18873 17.1453 0.132722 15.9587 0.0115409ZM8.37026 11.0794L5.2797 9.23286L2.18913 11.0794V1.84657H8.37026V11.0794Z" fill="#C6C6C6"/>
</svg>
