<svg width="79" height="88" viewBox="0 0 79 88" fill="none" xmlns="http://www.w3.org/2000/svg">
<path d="M68.4444 0V9.77778H58.6667V0H19.5556V9.77778H9.77778V0H0V88H9.77778V78.2222H19.5556V88H58.6667V78.2222H68.4444V88H78.2222V0H68.4444ZM19.5556 68.4444H9.77778V58.6667H19.5556V68.4444ZM19.5556 48.8889H9.77778V39.1111H19.5556V48.8889ZM19.5556 29.3333H9.77778V19.5556H19.5556V29.3333ZM68.4444 68.4444H58.6667V58.6667H68.4444V68.4444ZM68.4444 48.8889H58.6667V39.1111H68.4444V48.8889ZM68.4444 29.3333H58.6667V19.5556H68.4444V29.3333Z" fill="#B5B4B4"/>
</svg>
