<svg width="23" height="23" viewBox="0 0 23 23" fill="none" xmlns="http://www.w3.org/2000/svg">
<path d="M19.8712 0H18.3389C19.4334 0.341317 20.0025 1.23353 20.0025 2.55689V20.4431C20.0025 21.7665 19.4918 22.6767 18.3389 23H19.8712C21.6004 23 22.994 21.8503 22.994 20.4431V2.55689C22.994 1.1497 21.6004 0 19.8712 0Z" fill="#C6C6C6"/>
<path d="M16.1211 0.0119759C16.041 0.00598769 15.9608 0 15.8806 0H2.44537C1.09956 0 0 1.1497 0 2.55689V20.4431C0 21.8503 1.09956 23 2.44537 23H15.8863C15.9665 23 16.0467 22.994 16.1269 22.988C17.3581 22.8623 18.3317 21.7665 18.3317 20.4431V2.55689C18.326 1.23353 17.3524 0.137725 16.1211 0.0119759ZM8.2467 11.497L5.03965 9.58084L1.8326 11.497V1.91617H8.2467V11.497Z" fill="#C6C6C6"/>
</svg>
