<svg width="26" height="21" viewBox="0 0 26 21" fill="none" xmlns="http://www.w3.org/2000/svg">
<path d="M13 4.17679L3.72717 11.8212C3.72717 11.832 3.72445 11.8479 3.71903 11.8695C3.71372 11.891 3.7109 11.9066 3.7109 11.9176V19.6584C3.7109 19.9379 3.81308 20.1801 4.01738 20.3841C4.22164 20.5882 4.46351 20.6909 4.74306 20.6909H10.9355V14.4981H15.0644V20.6911H21.2569C21.5364 20.6911 21.7786 20.5886 21.9825 20.3841C22.1868 20.1804 22.2894 19.938 22.2894 19.6584V11.9176C22.2894 11.8747 22.2835 11.8423 22.2731 11.8212L13 4.17679Z" fill="#B5B4B4"/>
<path d="M25.8207 10.0795L22.2891 7.14437V0.564576C22.2891 0.414149 22.2408 0.290452 22.1437 0.193636C22.0475 0.096929 21.9238 0.0485795 21.773 0.0485795H18.6767C18.5261 0.0485795 18.4025 0.096929 18.3056 0.193636C18.209 0.290452 18.1607 0.414211 18.1607 0.564576V3.70928L14.2258 0.419293C13.8821 0.139745 13.4735 0 13.0004 0C12.5273 0 12.1188 0.139745 11.7748 0.419293L0.179203 10.0795C0.0717113 10.1653 0.0127972 10.2809 0.00183902 10.4261C-0.00906264 10.5711 0.0285001 10.6978 0.11464 10.8052L1.11449 11.9987C1.20063 12.0954 1.31337 12.1545 1.45317 12.1761C1.58224 12.187 1.71131 12.1493 1.84038 12.0633L13.0001 2.75778L24.1599 12.0632C24.2461 12.1382 24.3587 12.1757 24.4985 12.1757H24.547C24.6866 12.1544 24.7991 12.0949 24.8857 11.9984L25.8856 10.8052C25.9716 10.6975 26.0093 10.571 25.9981 10.4258C25.9871 10.2811 25.928 10.1655 25.8207 10.0795Z" fill="#B5B4B4"/>
</svg>
