<svg width="16" height="16" viewBox="0 0 16 16" fill="none" xmlns="http://www.w3.org/2000/svg">
<path d="M16 14.5912L12.6792 11.2704C13.5849 10.0629 14.088 8.65408 14.088 7.04401C14.088 3.11949 10.9685 0 7.04401 0C3.11949 0 0 3.11949 0 7.04401C0 10.9685 3.11949 14.088 7.04401 14.088C8.65408 14.088 10.0629 13.5849 11.2704 12.6792L14.5912 16L16 14.5912ZM2.01258 7.04401C2.01258 4.22641 4.22641 2.01258 7.04401 2.01258C9.86162 2.01258 12.0755 4.22641 12.0755 7.04401C12.0755 9.86162 9.86162 12.0755 7.04401 12.0755C4.22641 12.0755 2.01258 9.86162 2.01258 7.04401Z" fill="white"/>
</svg>
