<svg width="27" height="36" viewBox="0 0 27 36" fill="none" xmlns="http://www.w3.org/2000/svg">
<path opacity="0.87" d="M0 36V3.375C0 2.5213 0.316957 1.74163 1.05668 0.922214C1.45813 0.443882 2.36472 0 3.375 0H23.625C25.489 0 27 1.51102 27 3.375V36L13.5 28.125L0 36Z" fill="#514F4F"/>
<path d="M18.3318 13.8642H14.1872V9.71959C14.1872 9.34164 13.878 9.03241 13.5 9.03241C13.1221 9.03241 12.8128 9.34164 12.8128 9.71959V13.8642H8.66826C8.29031 13.8642 7.98108 14.1734 7.98108 14.5514C7.98108 14.7403 8.05839 14.9121 8.18294 15.0367C8.30749 15.1612 8.47929 15.2385 8.66826 15.2385H12.8128V19.3831C12.8128 19.5721 12.8901 19.7439 13.0147 19.8684C13.1393 19.993 13.311 20.0703 13.5 20.0703C13.878 20.0703 14.1872 19.7611 14.1872 19.3831V15.2385H18.3318C18.7097 15.2385 19.019 14.9293 19.019 14.5514C19.019 14.1734 18.7097 13.8642 18.3318 13.8642Z" fill="white"/>
</svg>
